<!-- Generated by IcoMoon.io -->
<svg version="1.1" xmlns="http://www.w3.org/2000/svg" width="1024" height="1024" viewBox="0 0 1024 1024" fill="#000">
<path d="M892.621 273.688l-64-128c-5.371-10.571-16.164-17.688-28.62-17.688 0 0-0.001 0-0.001 0h-576c0 0-0.001 0-0.001 0-12.456 0-23.249 7.117-28.536 17.506l-0.084 0.182-64 128c-2.13 4.169-3.379 9.095-3.379 14.311 0 0 0 0.001 0 0.001v0 544c0.042 35.329 28.671 63.958 63.996 64h640.004c35.329-0.042 63.958-28.671 64-63.996v-544.004c0 0 0-0.001 0-0.001 0-5.217-1.248-10.142-3.463-14.493l0.084 0.182zM670.393 622.863l-135.764 135.766c-0.217 0.217-0.457 0.404-0.678 0.613-0.533 0.504-1.064 1.010-1.633 1.477-0.268 0.221-0.555 0.41-0.828 0.621-0.557 0.428-1.107 0.859-1.691 1.252-0.225 0.15-0.465 0.275-0.693 0.42-0.654 0.416-1.313 0.828-1.998 1.195-0.17 0.092-0.348 0.164-0.52 0.25-0.758 0.391-1.525 0.766-2.318 1.096-0.113 0.049-0.234 0.082-0.35 0.129-0.85 0.342-1.709 0.658-2.594 0.928-0.117 0.037-0.238 0.059-0.355 0.092-0.879 0.256-1.766 0.49-2.672 0.672-0.262 0.053-0.531 0.074-0.795 0.121-0.764 0.133-1.527 0.268-2.309 0.344-0.958 0.103-2.070 0.162-3.195 0.162s-2.237-0.059-3.332-0.174l0.137 0.012c-0.781-0.076-1.545-0.211-2.309-0.344-0.264-0.047-0.533-0.068-0.795-0.121-0.906-0.182-1.793-0.416-2.672-0.672-0.117-0.033-0.238-0.055-0.355-0.092-0.887-0.27-1.752-0.59-2.604-0.932-0.111-0.045-0.229-0.078-0.34-0.125-0.793-0.33-1.561-0.705-2.32-1.096-0.17-0.088-0.348-0.158-0.518-0.25-0.686-0.367-1.344-0.779-1.998-1.195-0.229-0.145-0.469-0.27-0.693-0.42-0.584-0.393-1.135-0.824-1.691-1.252-0.273-0.211-0.561-0.4-0.828-0.621-0.553-0.453-1.068-0.949-1.59-1.438-0.236-0.223-0.49-0.422-0.721-0.652l-135.763-135.766c-5.791-5.791-9.373-13.792-9.373-22.629 0-17.674 14.328-32.001 32.001-32.001 8.837 0 16.837 3.582 22.628 9.373l81.137 81.138v-242.744c0-17.673 14.327-32 32-32s32 14.327 32 32v0 242.744l81.137-81.139c5.791-5.791 13.791-9.373 22.628-9.373 17.674 0 32.001 14.328 32.001 32.001 0 8.837-3.582 16.838-9.373 22.629v0zM211.777 256l32-64h536.445l32 64z"></path>
</svg>
