<!-- Generated by IcoMoon.io -->
<svg version="1.1" xmlns="http://www.w3.org/2000/svg" viewBox="0 0 1024 1024" fill="#000">
<path d="M973.996 280.464c-17.848-24.352-45.444-39.756-75.57-42.156l-623.232-49.36-11.33-64.188c-10.358-58.61-56.994-103.996-115.864-112.704l-78.7-11.686c-18.77-2.756-36.236 10.18-39.020 28.95-2.79 18.786 10.172 36.254 28.942 39.028v-0.016l78.732 11.72c29.576 4.328 53.052 27.172 58.262 56.648l106.676 604.604c10.010 56.75 59.294 98.094 116.922 98.112h438.384c18.98 0 34.352-15.388 34.352-34.344 0-18.972-15.372-34.36-34.352-34.36h-438.386c-24.266 0.018-45.072-17.45-49.284-41.344l-14.922-84.598h488.684c48.378 0 90.348-33.382 101.212-80.524l45.934-199.046c6.8-29.426 0.424-60.352-17.44-84.736z"></path>
<path d="M446.024 876.244c-40.804 0-73.87 33.108-73.87 73.896s33.066 73.862 73.87 73.862c40.802 0 73.888-33.074 73.888-73.862-0.002-40.788-33.086-73.896-73.888-73.896z"></path>
<path d="M774.248 876.244c-40.812 0-73.87 33.108-73.87 73.896s33.058 73.862 73.87 73.862c40.804 0 73.888-33.074 73.888-73.862s-33.084-73.896-73.888-73.896z"></path>
</svg>
