<!-- Generated by IcoMoon.io -->
<svg version="1.1" xmlns="http://www.w3.org/2000/svg" viewBox="0 0 1024 1024" fill="#000">
<path d="M170.24 719.104l-56.064 149.504c-1.285 3.331-2.029 7.186-2.029 11.214 0 17.673 14.327 32 32 32 4.040 0 7.905-0.749 11.464-2.115l-0.219 0.074 149.461-56.064c17.793-6.774 32.983-16.74 45.569-29.313l432.938-432.938s-15.104-45.269-60.331-90.539c-45.227-45.227-90.539-60.331-90.539-60.331l-432.939 432.939c-12.572 12.584-22.537 27.775-29.017 44.691l-0.295 0.877zM692.864 180.224l59.008-59.008c10.581-10.581 24.704-17.323 39.467-14.848 20.779 3.413 52.565 13.739 82.517 43.733 29.995 29.995 40.32 61.739 43.733 82.517 2.475 14.763-4.267 28.885-14.848 39.467l-59.051 59.008s-15.061-45.227-60.331-90.453c-45.227-45.312-90.496-60.373-90.496-60.373z"></path>
</svg>
