<!-- Generated by IcoMoon.io -->
<svg version="1.1" xmlns="http://www.w3.org/2000/svg" viewBox="0 0 1024 1024" fill="#000">
<path d="M512.001 159.792c-145.232 0-263.383 118.148-263.383 263.38 0 65.722 31.863 129.692 62.675 191.56 29.25 58.73 56.878 114.199 56.878 167.103 0 13.404 10.869 24.273 24.273 24.273h239.109c13.406 0 24.273-10.871 24.273-24.273 0-55.196 27.951-110.883 57.544-169.833 30.489-60.734 62.009-123.531 62.009-188.828 0.002-145.234-118.148-263.383-263.38-263.383z"></path>
<path d="M805.876 269.186c3.481 0 7.013-0.885 10.247-2.752l50.637-29.235c9.822-5.671 13.185-18.225 7.514-28.042-5.667-9.822-18.221-13.183-28.040-7.514l-50.637 29.235c-9.822 5.667-13.185 18.221-7.519 28.040 3.804 6.588 10.702 10.268 17.798 10.268z"></path>
<path d="M866.758 599.429l-50.637-29.231c-9.817-5.664-22.371-2.303-28.045 7.514-5.667 9.817-2.303 22.371 7.514 28.040l50.641 29.233c3.231 1.865 6.76 2.754 10.242 2.754 7.094 0 13.994-3.68 17.798-10.266 5.671-9.822 2.303-22.374-7.514-28.045z"></path>
<path d="M207.879 570.198l-50.637 29.231c-9.817 5.671-13.183 18.223-7.514 28.042 3.802 6.586 10.704 10.266 17.796 10.266 3.483 0 7.013-0.887 10.247-2.754l50.637-29.233c9.817-5.667 13.183-18.225 7.512-28.040-5.667-9.822-18.223-13.181-28.040-7.512z"></path>
<path d="M228.407 230.879l-50.637-29.235c-9.817-5.667-22.369-2.303-28.042 7.514-5.669 9.817-2.305 22.371 7.514 28.042l50.637 29.235c3.233 1.865 6.762 2.752 10.245 2.752 7.096 0 13.996-3.68 17.798-10.264 5.669-9.822 2.305-22.378-7.514-28.045z"></path>
<path d="M512.001 99.522c11.34 0 20.528-9.188 20.528-20.526v-58.468c0-11.34-9.191-20.528-20.528-20.528s-20.526 9.188-20.526 20.528v58.468c0 11.34 9.188 20.526 20.526 20.526z"></path>
<path d="M632.036 868.378c0-10.826-6.475-20.123-15.761-24.273h-208.549c-9.282 4.151-15.761 13.448-15.761 24.273s6.48 20.123 15.761 24.273c-9.282 4.151-15.761 13.443-15.761 24.269 0 10.83 6.48 20.123 15.761 24.273-9.282 4.155-15.761 13.452-15.761 24.278 0 14.688 11.912 26.596 26.602 26.596h5.749c8.308 18.806 27.108 31.933 48.985 31.933h77.404c21.877 0 40.677-13.127 48.987-31.933h5.745c14.69 0 26.605-11.901 26.605-26.596 0-10.826-6.48-20.123-15.761-24.278 9.279-4.151 15.761-13.443 15.761-24.273 0-10.826-6.48-20.118-15.761-24.269 9.279-4.151 15.757-13.448 15.757-24.273z"></path>
</svg>
