<!-- Generated by IcoMoon.io -->
<svg version="1.1" xmlns="http://www.w3.org/2000/svg" viewBox="0 0 1024 1024" fill="#000">
<path d="M443.845 324.247c49.165 0 89.165 39.998 89.165 89.165 0 49.165-39.998 89.163-89.165 89.163s-89.165-39.998-89.165-89.163c0-49.165 39.998-89.165 89.165-89.165z"></path>
<path d="M113.254 840.749c3.927 46.617 45.998 66.436 116.012 55.202 66.734-10.714 100.208 19.846 108.788 56.65 0 0 2.49 19.707 4.002 42.079 1.114 16.493 14.779 29.32 31.311 29.32h410.739c17.329 0 31.378-14.048 31.378-31.378v-113.584c0-55.933 5.562-138.964 45.675-183.125 111.156-122.373 172.362-282.831 110.286-444.456-72.207-188.009-273.793-272.079-465.197-247.184-69.445 9.032-137.102 32.909-195.497 71.809-106.56 70.986-182.625 189.492-193.747 317.996-3.263 37.691 14.639 83.332 5.627 119.202-1.815 7.26-11.664 41.121-85.466 113.87-17.656 17.405-9.116 47.442 15.055 52.952 32.868 7.494 55.502 11.973 58.902 13.916 0 0 0.837 131.355 2.132 146.732zM617.797 300.954l5.060-12.28c-4.175-7.429-7.513-15.388-9.875-23.754l-12.218-5.087c-4.267-1.775-7.044-5.943-7.044-10.565v-28.11c0-4.621 2.779-8.788 7.044-10.565l12.218-5.088c2.361-8.366 5.699-16.325 9.874-23.753l-5.060-12.28c-1.76-4.272-0.78-9.183 2.488-12.45l19.878-19.878c3.268-3.268 8.179-4.25 12.452-2.488l12.28 5.060c7.429-4.175 15.388-7.513 23.754-9.875l5.088-12.219c1.775-4.265 5.943-7.044 10.565-7.044h28.11c4.621 0 8.788 2.779 10.565 7.044l5.088 12.219c8.366 2.361 16.325 5.699 23.754 9.875l12.28-5.060c4.273-1.76 9.184-0.78 12.452 2.488l19.878 19.878c3.268 3.268 4.25 8.179 2.488 12.45l-5.060 12.28c4.175 7.429 7.513 15.388 9.874 23.753l12.218 5.088c4.267 1.775 7.044 5.943 7.044 10.565v28.11c0 4.62-2.779 8.788-7.044 10.565l-12.218 5.088c-2.361 8.366-5.699 16.325-9.875 23.753l5.060 12.28c1.76 4.272 0.78 9.184-2.488 12.45l-19.878 19.876c-3.268 3.268-8.179 4.25-12.452 2.488l-12.28-5.060c-7.429 4.175-15.388 7.513-23.754 9.874l-5.088 12.219c-1.775 4.265-5.943 7.044-10.565 7.044h-28.11c-4.621 0-8.788-2.779-10.565-7.044l-5.088-12.218c-8.366-2.361-16.325-5.699-23.754-9.875l-12.28 5.060c-4.273 1.76-9.184 0.78-12.452-2.488l-19.878-19.876c-3.264-3.266-4.245-8.179-2.485-12.45zM272.97 394.141c0-6.335 3.81-12.049 9.658-14.483l16.75-6.974c3.238-11.47 7.814-22.382 13.538-32.567l-6.937-16.836c-2.414-5.858-1.068-12.593 3.412-17.070l27.25-27.251c4.479-4.479 11.214-5.826 17.072-3.412l16.836 6.937c10.185-5.724 21.096-10.3 32.566-13.538l6.974-16.752c2.435-5.848 8.148-9.658 14.485-9.658h38.539c6.335 0 12.049 3.81 14.483 9.658l6.976 16.752c11.47 3.238 22.381 7.814 32.566 13.538l16.836-6.937c5.858-2.414 12.593-1.068 17.072 3.412l27.251 27.251c4.479 4.479 5.824 11.214 3.412 17.070l-6.937 16.836c5.724 10.185 10.3 21.096 13.538 32.567l16.75 6.974c5.85 2.435 9.658 8.148 9.658 14.483v38.539c0 6.335-3.81 12.049-9.658 14.483l-16.75 6.974c-3.238 11.47-7.814 22.382-13.538 32.567l6.937 16.834c2.414 5.858 1.068 12.593-3.412 17.072l-27.25 27.25c-4.479 4.479-11.214 5.824-17.070 3.412l-16.836-6.937c-10.185 5.724-21.096 10.3-32.567 13.538l-6.976 16.752c-2.435 5.85-8.148 9.658-14.483 9.658h-38.537c-6.335 0-12.049-3.81-14.483-9.658l-6.974-16.75c-11.47-3.238-22.382-7.814-32.567-13.538l-16.834 6.937c-5.858 2.414-12.593 1.068-17.072-3.412l-27.25-27.25c-4.479-4.479-5.826-11.214-3.412-17.072l6.937-16.834c-5.724-10.185-10.3-21.097-13.538-32.567l-16.75-6.974c-5.848-2.435-9.658-8.148-9.658-14.483v-19.269l-0.005-19.272z"></path>
<path fill="#000" d="M718.353 170.18c35.86 0 65.036 29.174 65.036 65.036 0 35.86-29.174 65.034-65.036 65.034s-65.036-29.174-65.036-65.034c0-35.86 29.174-65.036 65.036-65.036z"></path>
</svg>
