<!-- Generated by IcoMoon.io -->
<svg version="1.1" xmlns="http://www.w3.org/2000/svg" viewBox="0 0 1024 1024" fill="#000">
<path d="M320 480c0-17.664 14.336-32 32-32s32 14.336 32 32v384c0 17.696-14.336 32-32 32s-32-14.304-32-32v-384zM480 480c0-17.664 14.336-32 32-32s32 14.336 32 32v384c0 17.696-14.336 32-32 32s-32-14.304-32-32v-384zM640 480c0-17.664 14.336-32 32-32s32 14.336 32 32v384c0 17.696-14.336 32-32 32s-32-14.304-32-32v-384zM160 896c0 70.688 57.312 128 128 128h448c70.688 0 128-57.312 128-128v-512h-704v512zM608 128h-192v-32c0-17.696 14.336-32 32-32h128c17.664 0 32 14.304 32 32v32zM864 128h-192v-64c0-35.328-28.672-64-64-64h-192c-35.328 0-64 28.672-64 64v64h-192c-35.328 0-64 28.672-64 64v64c0 35.328 28.64 63.968 63.968 64h704.096c35.296-0.032 63.936-28.672 63.936-64v-64c0-35.328-28.672-64-64-64v0z"></path>
</svg>
